<svg width="19" height="20" viewBox="0 0 19 20" fill="none" xmlns="http://www.w3.org/2000/svg">
<path d="M15 12.1585C15 12.6973 15.2141 13.2141 15.5951 13.5951L17 15H12M11 3C11 2.76872 10.9607 2.54661 10.8885 2.33997C10.6159 1.55971 9.87329 1 9 1C7.89543 1 7 1.89543 7 3V3.34142C4.66962 4.16509 3 6.38757 3 9V12.1585C3 12.6973 2.78595 13.2141 2.40493 13.5951L1 15H6M12 15V16C12 17.6569 10.6569 19 9 19C7.34315 19 6 17.6569 6 16V15M12 15H6M13.5 5.5V7.5L15 9M18 7.5C18 9.98528 15.9853 12 13.5 12C11.0147 12 9 9.98528 9 7.5C9 5.01472 11.0147 3 13.5 3C15.9853 3 18 5.01472 18 7.5Z" stroke="#9EA6B1" stroke-width="1.5" stroke-linecap="round" stroke-linejoin="round"/>
</svg>
